<svg xmlns="http://www.w3.org/2000/svg" xmlns:svg="http://www.w3.org/2000/svg" width="640" height="480"> <!-- Created with SVG-edit - http://svg-edit.googlecode.com/ --> <g>  <title>Layer 1</title>  <ellipse ry="10" rx="10" id="svg_11" cy="177" cx="210" stroke-linecap="null" stroke-linejoin="null" stroke-dasharray="null" stroke-width="5" stroke="#000000" fill="#000000"/>  <ellipse id="svg_13" ry="10" rx="10" cy="184" cx="222.5" stroke-linecap="null" stroke-linejoin="null" stroke-dasharray="null" stroke-width="5" stroke="#000000" fill="#000000"/>  <ellipse ry="70" rx="82" id="svg_4" cy="193" cx="257" stroke-width="5" stroke="#000000" fill="#ffffff" commentId="a0a513e5-73df-4b50-a8da-f07a5c07d4a9"/>  <path d="m189,150c-0.878494,-0.000168 -1.104645,-0.56633 -1.647339,-1.057159c-0.586212,-0.530197 -1.326782,-1.150436 -1.952667,-1.517502c-0.77153,-0.452484 -1.868561,-0.670715 -2.233322,-1.425339c-0.355515,-0.735489 -0.392929,-1.542755 -1.045334,-2.221329c-0.556625,-0.578964 -1.121338,-1 -1.121338,-1.863998c0,-0.889343 0,-1.793335 0,-2.630676c0,-0.858658 0,-1.783997 0,-2.641159c0,-0.938339 0,-1.864334 0,-2.742844c0,-0.899994 0.022644,-1.76123 0.5,-2.399994c0.525406,-0.703049 0.211014,-1.72612 0.520828,-2.5c0.306412,-0.76535 0.884735,-1.432281 1.200836,-2.321663c0.26387,-0.742416 0.655731,-1.370621 1.261002,-2.361c0.327011,-0.53508 0.905792,-1.262077 1.348007,-2.348007c0.282761,-0.694374 0.516708,-1.631119 0.873825,-2.373833c0.384872,-0.800453 0.837006,-1.551407 1.12883,-2.428833c0.280762,-0.844162 0.803131,-1.604813 1.109512,-2.462166c0.270081,-0.755775 0.773163,-1.420502 1.414322,-2.061668c0.642838,-0.642838 1.300186,-1.111641 2.032166,-1.6175c0.673996,-0.465782 0.748627,-1.631958 1.636002,-2.014664c0.817932,-0.352753 1.4617,-0.790024 2.26001,-1.010666c0.880325,-0.243309 1.672241,-0.171783 2.362,-0.647331c0.703262,-0.484848 1.709824,-0.352669 2.552658,-0.352669c0.900009,0 1.8004,-0.025368 2.600006,0c0.901352,0.028595 1.622375,0.68615 2.5,0.942833c0.864273,0.252785 1.854263,-0.274437 2.699997,0.078003c0.736694,0.306999 1.442261,0.757072 2.221329,1.2005c0.752197,0.428131 1.455383,0.704872 2.178665,1.214661c0.788544,0.555786 1.292557,1.224617 2.079178,1.543167c0.797699,0.323036 1.646652,0.593468 2.236832,1.106171c0.699631,0.60778 0.960648,0.970581 1.283997,1.748001c0.320023,0.769432 1.299088,1.227135 1.716003,1.882668c0.447495,0.703606 0.841171,1.12822 1.283997,1.636665c0.465057,0.533981 0.981995,1.072136 1,2c0.016846,0.868668 0,1.74733 0,2.647331c0,0.800003 0,1.714668 0,2.647331l0,0.852669l0,0.925331l0,0.149338" id="svg_5" stroke-width="5" stroke="#000000" fill="none"/>  <path d="m285,127c0.166656,-0.833336 1,-1.020836 1,-1.914665c0,-0.801338 0.062531,-1.646767 0.574677,-2.085335c0.498596,-0.426971 0.714874,-1.278488 1.341309,-1.916c0.589294,-0.599701 0.994019,-1.407372 1.509338,-2.05867c0.527435,-0.666618 0.545959,-1.528793 1,-2.035995c0.531982,-0.594292 1.246246,-0.832405 1.563995,-1.564003c0.368835,-0.849236 0.585358,-1.414665 1.510681,-1.425331c0.925323,-0.010666 1.316986,-0.725159 1.936005,-1c0.785553,-0.348785 1.385529,-0.673347 2.174652,-0.989334c0.806793,-0.323059 1.332733,-0.764687 2.105347,-1.009331c0.889648,-0.281693 1.269653,-0.917458 2,-1.001335c0.853058,-0.097977 1.783997,0 2.70932,0c0.858673,0 1.796021,0 2.631836,0c0.917511,0 1.82135,0 2.658844,0c0.858673,0 1.808167,0.210075 2.70932,0c0.625458,-0.145805 0.999481,-0.981995 1.927338,-1c0.86853,-0.016853 1.732666,-0.000687 2.65802,0c0.903992,0.000671 1.041138,0.856247 1.953308,1c0.858765,0.135338 1.429108,0.709618 2.257355,1c0.790588,0.277176 1.586639,0.476563 2.257813,1c0.652954,0.509224 0.932465,1.170517 1.519501,1.716003c0.536896,0.498909 1.013885,1.108101 1.501343,1.783997c0.513397,0.711868 0.929077,1.148087 1.414673,1.783997c0.538177,0.704796 0.65329,1.389687 1.049316,2.141335c0.400604,0.760338 0.036011,1.796005 0.036011,2.658669c0,0.916 0,1.716003 0,2.630669c0,0.932663 0,1.785332 0,2.710663c0,0.858665 0.28653,1.868217 -0.057159,2.627342c-0.345551,0.763245 -0.640686,1.42482 -0.947327,2.299988c-0.26413,0.753845 -0.88031,1.161026 -1.348175,1.65184c-0.518158,0.543594 -1.278442,0.824127 -2.147339,1.016327c-0.843292,0.186539 -1.101929,1.274551 -1.721497,1.857834c-0.60437,0.568985 -1.466095,0.675095 -2.278503,1.121338c-0.536285,0.294571 -1.029785,0.637772 -1.5,1.221329c-0.528992,0.656494 -0.748047,1.451752 -1.294678,2.130508c-0.584076,0.72525 -1.212524,1.257172 -1.648163,2.005325c-0.424469,0.728958 -0.395294,1.607635 -1.057159,2.142838c-0.633881,0.512589 -1,1.074661 -1.425323,1.489334l-0.563995,-0.563995" id="svg_6" stroke-width="5" stroke="#000000" fill="none"/>  <ellipse id="svg_14" ry="10" rx="10" cy="186" cx="215.5" stroke-linecap="null" stroke-linejoin="null" stroke-dasharray="null" stroke-width="5" stroke="#000000" fill="#000000"/>  <ellipse id="svg_15" ry="10" rx="10" cy="186" cx="285.5" stroke-linecap="null" stroke-linejoin="null" stroke-dasharray="null" stroke-width="5" stroke="#000000" fill="#000000"/>  <ellipse stroke="#000000" id="svg_16" ry="3" rx="3" cy="212" cx="250.5" stroke-linecap="null" stroke-linejoin="null" stroke-dasharray="null" stroke-width="5" fill="#000000"/> </g><desc>Created with Snap</desc><defs/><rect x="174.87766483114237" y="123" width="164.24467033771535" height="140" id="annotation_svg_4" fill="none" stroke="#ff0000" style="stroke-dasharray: 5, 5;" transform="matrix(1,0,0,1,0,0)"/></svg>