<svg xmlns="http://www.w3.org/2000/svg" xmlns:se="http://svg-edit.googlecode.com" xmlns:xlink="http://www.w3.org/1999/xlink" xmlns:dc="http://purl.org/dc/elements/1.1/" xmlns:cc="http://creativecommons.org/ns#" xmlns:rdf="http://www.w3.org/1999/02/22-rdf-syntax-ns#" xmlns:inkscape="http://www.inkscape.org/namespaces/inkscape" width="777" height="480">                                    
	<title>my vector image</title>
	<g class="currentLayer">
	<title>Layer 1</title>
	<path id="svg_1" fill="#e7e767" fill-opacity="1" stroke="none" stroke-width="2" stroke-dasharray="none" stroke-linejoin="round" stroke-linecap="butt" stroke-dashoffset="" fill-rule="nonzero" opacity="1" marker-start="" marker-mid="" marker-end="" d="M257.34960556030273,208.768292427063 C257.34960556030273,176.4478504381127 295.61203649952927,150.268292427063 342.84960556030273,150.268292427063 C390.0871746210762,150.268292427063 428.34960556030273,176.4478504381127 428.34960556030273,208.768292427063 C428.34960556030273,241.08873441601327 390.0871746210762,267.268292427063 342.84960556030273,267.268292427063 C295.61203649952927,267.268292427063 257.34960556030273,241.08873441601327 257.34960556030273,208.768292427063 z" class=""/>
	<path id="svg_2" fill="#e7e767" fill-opacity="1" stroke="none" stroke-width="2" stroke-dasharray="none" stroke-linejoin="round" stroke-linecap="butt" stroke-dashoffset="" fill-rule="nonzero" opacity="1" marker-start="" marker-mid="" marker-end="" d="M251.92683029174805,151.8783618217338 C251.92683029174805,139.7552806184101 261.3828336303405,129.9355848437179 273.0569118261337,129.9355848437179 C284.73099002192697,129.9355848437179 294.1869933605194,139.7552806184101 294.1869933605194,151.8783618217338 C294.1869933605194,164.00144302505748 284.73099002192697,173.8211387997497 273.0569118261337,173.8211387997497 C261.3828336303405,173.8211387997497 251.92683029174805,164.00144302505748 251.92683029174805,151.8783618217338 z" class=""/>
	<path id="svg_3" fill="#e7e767" fill-opacity="1" stroke="none" stroke-width="2" stroke-dasharray="none" stroke-linejoin="round" stroke-linecap="butt" stroke-dashoffset="" fill-rule="nonzero" opacity="1" marker-start="" marker-mid="" marker-end="" d="M372.2520332336426,144.5612879997123 C372.2520332336426,132.4382067963886 381.708036572235,122.6185110216964 393.38211476802826,122.6185110216964 C405.0561929638215,122.6185110216964 414.51219630241394,132.4382067963886 414.51219630241394,144.5612879997123 C414.51219630241394,156.684369203036 405.0561929638215,166.5040649777282 393.38211476802826,166.5040649777282 C381.708036572235,166.5040649777282 372.2520332336426,156.684369203036 372.2520332336426,144.5612879997123 z" class="" />
	<path id="svg_4" fill="#242424" fill-opacity="1" stroke="none" stroke-opacity="1" stroke-width="2" stroke-dasharray="none" stroke-linejoin="round" stroke-linecap="butt" stroke-dashoffset="" fill-rule="nonzero" opacity="1" marker-start="" marker-mid="" marker-end="" d="M297.6260162591934,197.18292713165283 C297.6260162591934,191.38182215927714 302.9961820050498,186.68292713165283 309.6260162591934,186.68292713165283 C316.25585051333707,186.68292713165283 321.6260162591934,191.38182215927714 321.6260162591934,197.18292713165283 C321.6260162591934,202.98403210402853 316.25585051333707,207.68292713165283 309.6260162591934,207.68292713165283 C302.9961820050498,207.68292713165283 297.6260162591934,202.98403210402853 297.6260162591934,197.18292713165283 z" class=""/>
	<path id="svg_5" fill="#242424" fill-opacity="1" stroke="none" stroke-opacity="1" stroke-width="2" stroke-dasharray="none" stroke-linejoin="round" stroke-linecap="butt" stroke-dashoffset="" fill-rule="nonzero" opacity="1" marker-start="" marker-mid="" marker-end="" d="M360.22763979434967,194.7439022064209 C360.22763979434967,188.9427972340452 365.597805540206,184.2439022064209 372.22763979434967,184.2439022064209 C378.8574740484933,184.2439022064209 384.22763979434967,188.9427972340452 384.22763979434967,194.7439022064209 C384.22763979434967,200.5450071787966 378.8574740484933,205.2439022064209 372.22763979434967,205.2439022064209 C365.597805540206,205.2439022064209 360.22763979434967,200.5450071787966 360.22763979434967,194.7439022064209 z" class="" />
	<path id="svg_6" fill="#e76767" fill-opacity="1" stroke="none" stroke-opacity="1" stroke-width="2" stroke-dasharray="none" stroke-linejoin="round" stroke-linecap="butt" stroke-dashoffset="" fill-rule="nonzero" opacity="1" marker-start="" marker-mid="" marker-end="" d="M329,238.36991900205612 C329,233.67378640537103 337.0552486187845,229.86991900205612 347,229.86991900205612 C356.9447513812155,229.86991900205612 365,233.67378640537103 365,238.36991900205612 C365,243.0660515987412 356.9447513812155,246.86991900205612 347,246.86991900205612 C337.0552486187845,246.86991900205612 329,243.0660515987412 329,238.36991900205612 z" class=""/>
</g>
</svg>